<?xml version="1.0" encoding="UTF-8" standalone="no"?>
<svg
   viewBox="0 0 100 100"
   version="1.1"
   id="svg888"
   sodipodi:docname="JS-logo - Copy (2).svg"
   inkscape:version="1.1.1 (3bf5ae0d25, 2021-09-20)"
   xmlns:inkscape="http://www.inkscape.org/namespaces/inkscape"
   xmlns:sodipodi="http://sodipodi.sourceforge.net/DTD/sodipodi-0.dtd"
   xmlns="http://www.w3.org/2000/svg"
   xmlns:svg="http://www.w3.org/2000/svg">
  <sodipodi:namedview
     id="namedview890"
     pagecolor="#ffffff"
     bordercolor="#666666"
     borderopacity="1.0"
     inkscape:pageshadow="2"
     inkscape:pageopacity="0.0"
     inkscape:pagecheckerboard="0"
     showgrid="false"
     inkscape:zoom="10.69"
     inkscape:cx="50"
     inkscape:cy="50"
     inkscape:window-width="2400"
     inkscape:window-height="1261"
     inkscape:window-x="-9"
     inkscape:window-y="-1"
     inkscape:window-maximized="1"
     inkscape:current-layer="svg888" />
  <defs
     id="defs878">
    <linearGradient
       id="a"
       y1=".8"
       y2=".1">
      <stop
         stop-color="#36d6f3"
         id="stop858" />
      <stop
         stop-color="#ce6ff6"
         offset="1"
         id="stop860" />
    </linearGradient>
    <linearGradient
       id="b"
       x1=".1"
       x2=".7"
       y1=".8"
       y2=".5">
      <stop
         stop-color="#ce6ff6"
         id="stop863" />
      <stop
         stop-color="#f6b765"
         offset="1"
         id="stop865" />
    </linearGradient>
    <linearGradient
       id="c"
       x1=".1"
       x2=".7"
       y2=".1">
      <stop
         stop-color="#f66565"
         id="stop868" />
      <stop
         stop-color="#f6b765"
         offset="1"
         id="stop870" />
    </linearGradient>
    <linearGradient
       id="d"
       x1=".2"
       x2=".7"
       y1=".5"
       y2=".1">
      <stop
         stop-color="#b7f665"
         id="stop873" />
      <stop
         stop-color="#e7f665"
         offset="1"
         id="stop875" />
    </linearGradient>
  </defs>
  <path
     d="M19 158C7 79 84 48 124 57 68 57 17 105 19 158z"
     fill="url(#a)"
     style="fill:url(#a);stroke:#000000;stroke-opacity:1;stroke-width:0.86414161;stroke-miterlimit:4;stroke-dasharray:none;stroke-linecap:round;stroke-linejoin:round"
     transform="matrix(.44305 0 0 .43177 -8 -7)"
     id="path880" />
  <path
     d="M198 16c10 12 19 33 22 44-17 60-109 90-127 93C202 89 199 22 198 16z"
     fill="url(#b)"
     style="fill:url(#b);stroke:#000000;stroke-opacity:1;stroke-width:0.86414161;stroke-miterlimit:4;stroke-dasharray:none;stroke-linecap:round;stroke-linejoin:round"
     transform="matrix(.44305 0 0 .43177 -8 -7)"
     id="path882" />
  <path
     d="M243 77c-11 19-49 92-180 133-12 4-19 7-24-1-6-10-13-28-13-28 125-15 185-69 217-104z"
     fill="url(#c)"
     style="fill:url(#c);stroke:#000000;stroke-opacity:1;stroke-width:0.86414161;stroke-miterlimit:4;stroke-dasharray:none;stroke-linecap:round;stroke-linejoin:round"
     transform="matrix(.44305 0 0 .43177 -8 -7)"
     id="path884" />
  <path
     d="M74 222s11 15 19 21c9 6 9 6 24 0 41-16 80-51 107-98-34 30-87 70-150 77z"
     fill="url(#d)"
     style="fill:url(#d);stroke:#000000;stroke-opacity:1;stroke-width:0.86414161;stroke-miterlimit:4;stroke-dasharray:none;stroke-linecap:round;stroke-linejoin:round"
     transform="matrix(.44305 0 0 .43177 -8 -7)"
     id="path886" />
</svg>
