<svg viewBox="0 0 100 100" xmlns="http://www.w3.org/2000/svg"><defs><linearGradient id="a" y1=".8" y2=".1"><stop stop-color="#5ad1ed"/><stop stop-color="#d78ff3" offset="1"/></linearGradient><linearGradient id="b" x1=".1" x2=".7" y1=".8" y2=".5"><stop stop-color="#d78ff3"/><stop stop-color="#f2c687" offset="1"/></linearGradient><linearGradient id="c" x1=".1" x2=".7" y2=".1"><stop stop-color="#f28787"/><stop stop-color="#f2c687" offset="1"/></linearGradient><linearGradient id="d" x1=".2" x2=".7" y1=".5" y2=".1"><stop stop-color="#c1f287"/><stop stop-color="#e5f287" offset="1"/></linearGradient></defs><path d="M19 158C7 79 84 48 124 57 68 57 17 105 19 158z" fill="url(#a)" style="fill:url(#a)" transform="matrix(.44305 0 0 .43177 -8 -7)"/><path d="M198 16c10 12 19 33 22 44-17 60-109 90-127 93C202 89 199 22 198 16z" fill="url(#b)" style="fill:url(#b)" transform="matrix(.44305 0 0 .43177 -8 -7)"/><path d="M243 77c-11 19-49 92-180 133-12 4-19 7-24-1-6-10-13-28-13-28 125-15 185-69 217-104z" fill="url(#c)" style="fill:url(#c)" transform="matrix(.44305 0 0 .43177 -8 -7)"/><path d="M74 222s11 15 19 21c9 6 9 6 24 0 41-16 80-51 107-98-34 30-87 70-150 77z" fill="url(#d)" style="fill:url(#d)" transform="matrix(.44305 0 0 .43177 -8 -7)"/></svg>